<svg width="25" height="11" viewBox="0 0 25 11" fill="none" xmlns="http://www.w3.org/2000/svg">
<path fill-rule="evenodd" clip-rule="evenodd" d="M2.5 0C1.11929 0 0 1.11929 0 2.5V8C0 9.38071 1.11929 10.5 2.5 10.5H18.4687H19.5C20.8807 10.5 22 9.38071 22 8V2.5C22 1.11929 20.8807 0 19.5 0H2.5ZM3 1C1.89543 1 1 1.89543 1 3V7.5C1 8.60457 1.89543 9.5 3 9.5H17.4687H19C20.1046 9.5 21 8.60457 21 7.5V3C21 1.89543 20.1046 1 19 1H3Z" fill="#ABABAB"/>
<path fill-rule="evenodd" clip-rule="evenodd" d="M23 7.37398C23.8626 7.15196 24.5 6.36891 24.5 5.43699C24.5 4.50507 23.8626 3.72202 23 3.5V7.37398Z" fill="#ABABAB"/>
<rect x="2" y="2" width="18" height="6.5" rx="1" fill="#060606"/>
</svg>
