<svg width="12" height="10" viewBox="0 0 12 10" fill="none" xmlns="http://www.w3.org/2000/svg">
<path d="M6.37568 1.64346L6.74262 1.27556C7.84173 0.226377 9.56525 0.256406 10.7307 1.28905L10.818 1.36967C11.3294 1.86196 11.5539 2.63271 11.4893 3.47353C11.4247 4.31442 11.0743 5.14605 10.5439 5.6951L10.3851 5.85588L10.2073 6.02966C9.52048 6.69044 8.45754 7.60475 7.01064 8.77646C7.01043 8.77663 7.01022 8.7768 7.01001 8.77697L6.18422 9.44041C6.18406 9.44054 6.18389 9.44068 6.18372 9.44081C6.08264 9.52101 5.93012 9.51941 5.83116 9.43782C5.83105 9.43774 5.83095 9.43765 5.83085 9.43757L4.8115 8.58974L4.80897 8.58762L3.90221 7.82325C3.90198 7.82305 3.90175 7.82285 3.90151 7.82266C2.82145 6.90494 2.01811 6.19289 1.48654 5.68354C0.918528 5.13927 0.564942 4.32166 0.50806 3.49092C0.451225 2.66085 0.692805 1.88062 1.22924 1.3666C2.38519 0.258973 4.20189 0.199834 5.32996 1.26643L5.64871 1.62339L6.00157 2.01854L6.37568 1.64346Z" stroke="black" stroke-opacity="0.4"/>
</svg>
