<svg width="17" height="17" viewBox="0 0 17 17" fill="none" xmlns="http://www.w3.org/2000/svg">
<path d="M15.5 0C16.3284 0 17 0.671573 17 1.5V15.5C17 16.3284 16.3284 17 15.5 17H11.191L11.1927 10.9472H13.9045V8.16477H11.1927V6.95355L11.194 6.84995C11.2125 6.14286 11.4354 5.65555 12.3763 5.60358L12.5499 5.59898H14V3H11.8869L11.7041 3.00336C9.7795 3.07475 8.45529 4.28212 8.36915 6.45027L8.36468 6.67799V8.16477H6V10.9472H8.36468L8.363 17H1.5C0.671573 17 0 16.3284 0 15.5V1.5C0 0.671573 0.671573 0 1.5 0H15.5Z" fill="#3797EF"/>
</svg>
