<svg width="13" height="16" viewBox="0 0 13 16" fill="none" xmlns="http://www.w3.org/2000/svg">
<path fill-rule="evenodd" clip-rule="evenodd" d="M6.64289 2.16807L7.97726 0.88642C8.21625 0.656875 8.59607 0.66453 8.82562 0.903519C9.02966 1.11595 9.04628 1.43966 8.87961 1.67019L8.80852 1.75187L7.508 2.99915L10.1154 3C11.7085 3 13 4.29149 13 5.88461V12.6154C13 14.2085 11.7085 15.5 10.1154 15.5H3.38462C1.79149 15.5 0.5 14.2085 0.5 12.6154V5.88461C0.5 4.29149 1.79149 3 3.38462 3L5.776 2.99915L4.47726 1.75187C4.26483 1.54783 4.23518 1.22506 4.39243 0.987999L4.46017 0.903519C4.66421 0.691085 4.98698 0.661432 5.22404 0.818682L5.30852 0.88642L6.64289 2.16807L7.97726 0.88642L6.64289 2.16807ZM6.46051 7.82563L3.21302 8.79049C2.974 8.8615 2.83447 9.12477 2.90136 9.37852C2.96825 9.63226 3.21624 9.78039 3.45526 9.70938L6.13222 8.91402V10.2148C6.13222 10.5455 6.44147 10.7759 6.73443 10.6635L10.2802 9.30251C10.5136 9.21292 10.6344 8.93941 10.55 8.69162C10.4656 8.44382 10.208 8.31557 9.97459 8.40516L7.03104 9.53498V8.28507C7.03104 7.96917 6.74706 7.74049 6.46051 7.82563Z" fill="#262626"/>
</svg>
