<svg width="24" height="22" viewBox="0 0 24 22" fill="none" xmlns="http://www.w3.org/2000/svg">
<path fill-rule="evenodd" clip-rule="evenodd" d="M11.8725 3.15894L11.2175 2.39334C8.58142 -0.242703 4.37761 -0.0630701 1.74157 2.57297C-0.894471 5.20901 -0.387159 10.3053 2.24888 12.9414C3.31874 14.0112 4.92092 15.4925 7.05542 17.3853L8.85115 18.9651L10.8681 20.7158C11.4234 21.1951 12.2439 21.2024 12.8077 20.7332L14.4416 19.3632C17.3029 16.9451 19.4262 15.0404 20.8115 13.6493L21.171 13.2826L21.4939 12.9414C23.9489 10.294 24.5798 5.1477 22.005 2.57297L21.8185 2.39334C19.1711 -0.0616443 15.179 -0.181399 12.6042 2.39334L11.8725 3.15894ZM2.80223 3.63363C4.88666 1.5492 8.11137 1.45148 10.118 3.41566L11.8111 5.39431L13.6886 3.42971C15.6145 1.50438 18.6838 1.53221 20.7986 3.49322L20.9645 3.65341C22.7839 5.4732 22.4744 9.67794 20.394 11.9214L20.0815 12.2516L19.7348 12.605C18.5864 13.7575 16.8845 15.3016 14.6405 17.2246L13.4734 18.2176L11.8481 19.5803L9.83442 17.8323L8.39319 16.5663C6.36239 14.7714 4.79575 13.3358 3.69885 12.2651L3.30954 11.8807C1.138 9.70918 0.866398 5.56946 2.80223 3.63363Z" fill="#262626"/>
</svg>
