<svg width="18" height="12" viewBox="0 0 18 12" fill="none" xmlns="http://www.w3.org/2000/svg">
<path fill-rule="evenodd" clip-rule="evenodd" d="M1.66663 7.33332H2.66663C3.21891 7.33332 3.66663 7.78104 3.66663 8.33332V10.3333C3.66663 10.8856 3.21891 11.3333 2.66663 11.3333H1.66663C1.11434 11.3333 0.666626 10.8856 0.666626 10.3333V8.33332C0.666626 7.78104 1.11434 7.33332 1.66663 7.33332ZM6.33329 5.33332H7.33329C7.88558 5.33332 8.33329 5.78104 8.33329 6.33332V10.3333C8.33329 10.8856 7.88558 11.3333 7.33329 11.3333H6.33329C5.78101 11.3333 5.33329 10.8856 5.33329 10.3333V6.33332C5.33329 5.78104 5.78101 5.33332 6.33329 5.33332ZM11 2.99999H12C12.5522 2.99999 13 3.44771 13 3.99999V10.3333C13 10.8856 12.5522 11.3333 12 11.3333H11C10.4477 11.3333 9.99996 10.8856 9.99996 10.3333V3.99999C9.99996 3.44771 10.4477 2.99999 11 2.99999ZM15.6666 0.666656H16.6666C17.2189 0.666656 17.6666 1.11437 17.6666 1.66666V10.3333C17.6666 10.8856 17.2189 11.3333 16.6666 11.3333H15.6666C15.1143 11.3333 14.6666 10.8856 14.6666 10.3333V1.66666C14.6666 1.11437 15.1143 0.666656 15.6666 0.666656Z" fill="#060606"/>
</svg>
