<svg width="22" height="24" viewBox="0 0 22 24" fill="none" xmlns="http://www.w3.org/2000/svg">
<path fill-rule="evenodd" clip-rule="evenodd" d="M0.860596 1.17856V22.831C0.860596 23.0937 0.96403 23.346 1.14853 23.5331C1.5363 23.9263 2.16944 23.9308 2.56271 23.543L11.1113 15.1139L19.66 23.543C19.8471 23.7275 20.0993 23.831 20.3621 23.831C20.9144 23.831 21.3621 23.3832 21.3621 22.831V1.17856C21.3621 0.902416 21.1382 0.678558 20.8621 0.678558H1.3606C1.08445 0.678558 0.860596 0.902416 0.860596 1.17856ZM2.3606 21.6358V2.17856H19.8621V21.6358L11.8134 13.6996C11.4241 13.3157 10.7986 13.3157 10.4092 13.6996L2.3606 21.6358Z" fill="#262626"/>
</svg>
