<svg width="20" height="20" viewBox="0 0 20 20" fill="none" xmlns="http://www.w3.org/2000/svg">
<path fill-rule="evenodd" clip-rule="evenodd" d="M6.25 0C6.66421 0 7 0.335786 7 0.75C7 1.16421 6.66421 1.5 6.25 1.5H4C2.61929 1.5 1.5 2.61929 1.5 4V6.25C1.5 6.66421 1.16421 7 0.75 7C0.335786 7 0 6.66421 0 6.25V4C0 1.79086 1.79086 0 4 0H6.25ZM12 5.5C13.3807 5.5 14.5 6.61929 14.5 8V12C14.5 13.3807 13.3807 14.5 12 14.5H8C6.61929 14.5 5.5 13.3807 5.5 12V8C5.5 6.61929 6.61929 5.5 8 5.5H12ZM1.5 13.75C1.5 13.3358 1.16421 13 0.75 13C0.335786 13 0 13.3358 0 13.75V16C0 18.2091 1.79086 20 4 20H6.25C6.66421 20 7 19.6642 7 19.25C7 18.8358 6.66421 18.5 6.25 18.5H4C2.61929 18.5 1.5 17.3807 1.5 16V13.75ZM20 13.75C20 13.3358 19.6642 13 19.25 13C18.8358 13 18.5 13.3358 18.5 13.75V16C18.5 17.3807 17.3807 18.5 16 18.5H13.75C13.3358 18.5 13 18.8358 13 19.25C13 19.6642 13.3358 20 13.75 20H16C18.2091 20 20 18.2091 20 16V13.75ZM8 7H12C12.5523 7 13 7.44772 13 8V12C13 12.5523 12.5523 13 12 13H8C7.44772 13 7 12.5523 7 12V8C7 7.44772 7.44772 7 8 7ZM20 4C20 1.79086 18.2091 0 16 0H13.75C13.3358 0 13 0.335786 13 0.75C13 1.16421 13.3358 1.5 13.75 1.5H16C17.3807 1.5 18.5 2.61929 18.5 4V6.25C18.5 6.66421 18.8358 7 19.25 7C19.6642 7 20 6.66421 20 6.25V4Z" fill="#262626"/>
</svg>
