<svg width="13" height="16" viewBox="0 0 13 16" fill="none" xmlns="http://www.w3.org/2000/svg">
<path fill-rule="evenodd" clip-rule="evenodd" d="M6.5 0.75C8.433 0.75 10 2.317 10 4.25H10.5C11.6046 4.25 12.5 5.14543 12.5 6.25V13.25C12.5 14.3546 11.6046 15.25 10.5 15.25H2C0.89543 15.25 0 14.3546 0 13.25V6.25C0 5.14543 0.89543 4.25 2 4.25H2.75C2.75 2.317 4.317 0.75 6.25 0.75H6.5ZM3.5 6.25C3.08579 6.25 2.75 6.58579 2.75 7C2.75 7.41421 3.08579 7.75 3.5 7.75C3.91421 7.75 4.25 7.41421 4.25 7C4.25 6.58579 3.91421 6.25 3.5 6.25ZM9.25 6.25C8.83579 6.25 8.5 6.58579 8.5 7C8.5 7.41421 8.83579 7.75 9.25 7.75C9.66421 7.75 10 7.41421 10 7C10 6.58579 9.66421 6.25 9.25 6.25ZM6.5 2.25H6.25C5.14543 2.25 4.25 3.14543 4.25 4.25H8.5C8.5 3.14543 7.60457 2.25 6.5 2.25Z" fill="#262626"/>
</svg>
