<svg width="75" height="50" viewBox="0 0 75 50" fill="none" xmlns="http://www.w3.org/2000/svg">
<rect width="75" height="50" fill="#FAFAFA" fill-opacity="0.01"/>
<path fill-rule="evenodd" clip-rule="evenodd" d="M47.7 20.7059L37.7 10.9045C37.3111 10.5234 36.6889 10.5234 36.3 10.9045L26.3 20.7059C26.1081 20.894 26 21.1514 26 21.4201V33.5L26.008 33.5899C26.0504 33.8231 26.2545 34 26.5 34L34.5 33.9997C34.7761 33.9996 35 33.7758 35 33.4997V28L35.0051 27.8237C35.0963 26.2489 35.4023 25 37 25L37.1763 25.0051C38.6344 25.0896 38.9558 26.2155 38.9955 27.6501L39 28V33.4997C39 33.7758 39.2239 33.9996 39.5 33.9997L47.5 34L47.5899 33.9919C47.8231 33.9496 48 33.7455 48 33.5V21.4201C48 21.1514 47.8919 20.894 47.7 20.7059ZM27.5 21.6301L37 12.3188L46.5 21.6301V32.4999L40.5 32.4997V28L40.4953 27.6307C40.4284 25.2006 39.5423 23.6397 37.263 23.5076L37.0433 23.5006C34.5514 23.5 33.6619 25.0746 33.5076 27.737L33.5006 27.9567L33.5001 32.4997L27.5 32.4999V21.6301Z" fill="#262626"/>
</svg>
