<svg width="75" height="50" viewBox="0 0 75 50" fill="none" xmlns="http://www.w3.org/2000/svg">
<rect width="75" height="50" fill="#FAFAFA" fill-opacity="0.01"/>
<path fill-rule="evenodd" clip-rule="evenodd" d="M44.75 20C44.75 14.6152 40.3848 10.25 35 10.25C29.6152 10.25 25.25 14.6152 25.25 20C25.25 25.3848 29.6152 29.75 35 29.75C37.4226 29.75 39.6388 28.8664 41.344 27.404L47.3336 33.3943L47.4177 33.4669C47.7114 33.6848 48.128 33.6606 48.3943 33.3943C48.6872 33.1014 48.6872 32.6265 48.3943 32.3336L42.404 26.344C43.8664 24.6388 44.75 22.4226 44.75 20ZM26.75 20C26.75 15.4437 30.4437 11.75 35 11.75C39.5563 11.75 43.25 15.4437 43.25 20C43.25 24.5563 39.5563 28.25 35 28.25C30.4437 28.25 26.75 24.5563 26.75 20Z" fill="#262626"/>
</svg>
