<svg width="75" height="50" viewBox="0 0 75 50" fill="none" xmlns="http://www.w3.org/2000/svg">
<rect width="75" height="50" fill="#FAFAFA" fill-opacity="0.01"/>
<path fill-rule="evenodd" clip-rule="evenodd" d="M42 10.25C45.7279 10.25 48.75 13.2721 48.75 17V27C48.75 30.7279 45.7279 33.75 42 33.75H32C28.2721 33.75 25.25 30.7279 25.25 27V17C25.25 13.2721 28.2721 10.25 32 10.25H42ZM42 11.75H32C29.1005 11.75 26.75 14.1005 26.75 17V27C26.75 29.8995 29.1005 32.25 32 32.25H42C44.8995 32.25 47.25 29.8995 47.25 27V17C47.25 14.1005 44.8995 11.75 42 11.75ZM37.7432 15.8982C37.6935 15.5322 37.3797 15.25 37 15.25L36.8982 15.2568L36.8006 15.2768C36.4832 15.3641 36.25 15.6548 36.25 16V21.249L31 21.25L30.8982 21.2568C30.5322 21.3065 30.25 21.6203 30.25 22L30.2568 22.1018C30.3065 22.4678 30.6203 22.75 31 22.75L36.25 22.749V28L36.2568 28.1018C36.3065 28.4678 36.6203 28.75 37 28.75L37.1018 28.7432C37.4678 28.6935 37.75 28.3797 37.75 28V22.75H43L43.1018 22.7432C43.4678 22.6935 43.75 22.3797 43.75 22L43.7432 21.8982C43.6935 21.5322 43.3797 21.25 43 21.25H37.75V16L37.7432 15.8982Z" fill="#262626"/>
</svg>
