<svg width="75" height="50" viewBox="0 0 75 50" fill="none" xmlns="http://www.w3.org/2000/svg">
<rect width="75" height="50" fill="#FAFAFA" fill-opacity="0.01"/>
<path fill-rule="evenodd" clip-rule="evenodd" d="M36.8725 14.6551L36.2175 13.8895C33.5814 11.2535 29.3776 11.4331 26.7416 14.0691C24.1055 16.7052 24.6128 21.8015 27.2489 24.4375C28.3187 25.5074 29.9209 26.9887 32.0554 28.8815L33.8511 30.4612L35.8681 32.212C36.4234 32.6913 37.2439 32.6986 37.8077 32.2293L39.4416 30.8594C42.3029 28.4413 44.4262 26.5366 45.8115 25.1454L46.171 24.7788L46.4939 24.4375C48.9489 21.7901 49.5798 16.6439 47.005 14.0691L46.8185 13.8895C44.1711 11.4345 40.179 11.3148 37.6042 13.8895L36.8725 14.6551ZM27.8022 15.1298C29.8867 13.0454 33.1114 12.9476 35.118 14.9118L36.8111 16.8905L38.6886 14.9259C40.6145 13.0006 43.6838 13.0284 45.7986 14.9894L45.9645 15.1496C47.7839 16.9694 47.4744 21.1741 45.394 23.4176L45.0815 23.7477L44.7348 24.1012C43.5864 25.2537 41.8845 26.7978 39.6405 28.7208L38.4734 29.7138L36.8481 31.0764L34.8344 29.3285L33.3932 28.0625C31.3624 26.2676 29.7957 24.832 28.6988 23.7613L28.3095 23.3769C26.138 21.2053 25.8664 17.0656 27.8022 15.1298Z" fill="#262626"/>
</svg>
