<svg width="16" height="12" viewBox="0 0 16 12" fill="none" xmlns="http://www.w3.org/2000/svg">
<path fill-rule="evenodd" clip-rule="evenodd" d="M8.33033 2.60802C10.5462 2.60811 12.6774 3.45955 14.2833 4.98635C14.4043 5.10422 14.5976 5.10274 14.7167 4.98302L15.8727 3.81635C15.933 3.75563 15.9666 3.67338 15.9661 3.58779C15.9656 3.50221 15.931 3.42036 15.87 3.36035C11.6549 -0.679198 5.0051 -0.679198 0.789998 3.36035C0.728939 3.42032 0.694296 3.50215 0.693733 3.58773C0.69317 3.67331 0.726734 3.75558 0.786998 3.81635L1.94333 4.98302C2.06236 5.10292 2.25581 5.10441 2.37666 4.98635C3.98282 3.45945 6.11422 2.60801 8.33033 2.60802ZM8.33033 6.40368C9.54782 6.40361 10.7219 6.85614 11.6243 7.67335C11.7464 7.78933 11.9387 7.78682 12.0577 7.66768L13.2123 6.50102C13.2731 6.43982 13.3069 6.3568 13.306 6.27054C13.3051 6.18427 13.2697 6.10196 13.2077 6.04202C10.4595 3.48563 6.20353 3.48563 3.45533 6.04202C3.39325 6.10196 3.35784 6.18432 3.35702 6.27061C3.35621 6.3569 3.39006 6.43991 3.451 6.50102L4.60533 7.66768C4.72432 7.78682 4.9166 7.78933 5.03866 7.67335C5.94054 6.85668 7.11365 6.40419 8.33033 6.40368ZM10.5493 9.18802C10.6111 9.12741 10.6451 9.04401 10.6433 8.9575C10.6416 8.87099 10.6042 8.78905 10.54 8.73102C9.26443 7.65213 7.39624 7.65213 6.12067 8.73102C6.05644 8.789 6.019 8.87092 6.01717 8.95743C6.01534 9.04394 6.04929 9.12736 6.111 9.18802L8.10866 11.2037C8.16722 11.2629 8.24704 11.2963 8.33033 11.2963C8.41362 11.2963 8.49345 11.2629 8.552 11.2037L10.5493 9.18802Z" fill="#060606"/>
</svg>
